<svg width="1000" height="1000" xmlns="http://www.w3.org/2000/svg">
 <metadata>IcoFont Icons</metadata>

 <title>beard</title>
 <g>
  <title>background</title>
  <rect fill="none" id="canvas_background" height="602" width="802" y="-1" x="-1"/>
 </g>
 <g>
  <title>Layer 1</title>
  <path fill="#f8f8f8" id="svg_1" d="m833.6,199.7c-12.3,0 -22.3,17.1 -23.5,38c-5.2,99.8 -29.4,291.4 -96.3,302.5c-49.4,8.1 -99.4,-138.3 -128.1,-175.7c-28.8,-37.5 -136.5,-60.8 -179.5,17.8c-43.1,78.6 -56.7,139 -122.9,159.6c-47,14.7 -70.4,-70.6 -80.4,-122.3c-4.1,-20.6 -8.5,-54.2 -10.7,-75.1c-3.6,-35.5 -6,-71.1 -6.9,-106.8c-0.6,-20.9 -9.6,-36.8 -20.9,-35.4c-11.2,1.3 -20.5,19.4 -19.9,40.4c2.2,70.3 10.6,140.2 23.8,207.2c20.6,146.9 76.7,378.7 229.4,456c18.7,9.5 50.2,22.1 70.4,27c12.3,3 24.8,4.6 37.4,4.6c28.4,0 55.7,-7.9 81.9,-22c158.3,-67.1 241.6,-327.8 253.4,-515.3c8.1,-54.3 13,-104.1 14.4,-162.6c0.7,-21 -9.5,-37.9 -21.6,-37.9zm-240.1,379.7c-16.6,9.5 -27.6,7.3 -34.7,0.6c-15.2,-14 -16.8,-53.6 -35.4,-63.5c-27.7,-14.7 -71.1,-3.1 -71.1,31.6c0,37.4 -39.5,38.7 -49.6,26.7c-32.2,-37.8 -8.5,-74.8 14.9,-97.7c14.8,-14.7 43.5,-35 64.3,-37.8c35.7,-4.8 72.7,11.9 72.7,11.9c75.4,42.4 58.7,116.8 38.9,128.2zm-282.2,-467.1l42,0c13.8,0 24.9,-11.2 24.9,-24.9s-11.1,-24.9 -24.9,-24.9l-42,0c-13.8,0 -24.9,11.2 -24.9,24.9c0,13.8 11.2,24.9 24.9,24.9zm336,0l42,0c13.8,0 24.9,-11.2 24.9,-24.9s-11.1,-24.9 -24.9,-24.9l-42,0c-13.8,0 -24.9,11.2 -24.9,24.9c0,13.8 11.2,24.9 24.9,24.9z"/>
 </g>
</svg>